<?xml version="1.0" encoding="utf-8"?>
<!-- Generator: Adobe Illustrator 21.0.0, SVG Export Plug-In . SVG Version: 6.00 Build 0)  -->
<svg version="1.1" id="Camada_1" xmlns="http://www.w3.org/2000/svg" xmlns:xlink="http://www.w3.org/1999/xlink" x="0px" y="0px"
	 viewBox="250 240 341.9 110.3" style="enable-background:new 250 240 341.9 110.3;" xml:space="preserve">
<style type="text/css">
	.st0{fill:#FFFFFF;}
</style>
<g>
	<path class="st0" d="M266.7,272.8c4.9,0,8.1-2.5,10.5-5.6v3.1c0,6.2-3.8,9.5-9.7,9.5c-3.8,0-7.2-1.2-10.3-3.4l-1.8,3.1
		c3.6,2.5,7.7,3.7,12.1,3.7c8.2,0,13.6-4.4,13.6-13v-22h-4v4.8c-2.2-2.9-5.4-5.4-10.4-5.4c-6.3,0-12.5,4.8-12.5,12.6
		C254.2,268,260.3,272.8,266.7,272.8z M267.5,251.1c5,0,9.8,3.6,9.8,9.1c0,5.5-4.7,9.1-9.8,9.1c-4.9,0-9.2-3.7-9.2-9.1
		C258.3,254.6,262.4,251.1,267.5,251.1z"/>
	<path class="st0" d="M302.8,252v-4.3c-5-0.2-8.9,3-10.9,7.4v-7h-4v26.6h4v-10.6c0-8,4.7-12.2,10.6-12.2H302.8z"/>
	<path class="st0" d="M318.6,275.4c4.6,0,7.3-2.3,9.1-5.2v4.6h3.9v-26.6h-3.9v15.3c0,5-3.5,8.3-8,8.3c-4.7,0-7.4-3.1-7.4-8v-15.6h-4
		v16.5C308.4,271.1,312.2,275.4,318.6,275.4z"/>
	<path class="st0" d="M366.4,261.5c0-8.8-6.3-13.9-12.7-13.9c-4.9,0-8,2.7-10.2,5.9v-5.4h-4v34.9h4v-13.3c2.1,3,5.3,5.7,10.2,5.7
		C360.2,275.4,366.4,270.2,366.4,261.5z M343.4,261.5c0-6.2,4.7-10.3,9.6-10.3c5,0,9.4,4,9.4,10.4c0,6.5-4.2,10.3-9.4,10.3
		C348,271.8,343.4,267.7,343.4,261.5z"/>
	<path class="st0" d="M384.9,275.4c8,0,14-6.4,14-14s-5.9-13.9-13.9-13.9c-8,0-13.9,6.4-13.9,14S376.9,275.4,384.9,275.4z
		 M384.9,251.1c5.6,0,9.9,4.6,9.9,10.5c0,5.7-4,10.3-9.8,10.3c-5.6,0-9.8-4.6-9.8-10.4C375.2,255.7,379.1,251.1,384.9,251.1z"/>
	<path class="st0" d="M371,290.1C370.9,290.1,370.9,290.1,371,290.1c-0.8,0.2-1.7,0.6-2.4,1c0,0-0.1,0-0.1,0.1
		c-0.4,0.2-0.8,0.4-1.1,0.7c-2.2,1.5-4,3.6-5.4,6.4v-7.8v0h-13.6v0v2v0v25.7v13.4h14.8v-24.4c1.1-1.5,2.9-2.5,5.2-3.1
		s4.9-0.9,7.8-0.9v-13.4c-0.3-0.1-0.9-0.1-1.9-0.1C373.1,289.6,372,289.8,371,290.1z"/>
	<polygon class="st0" points="410.2,290.4 403.9,315.4 403.9,315.4 402.7,319.9 395.4,290.4 380.2,290.4 387.3,311.6 387.3,311.6 
		392.3,326.7 392.4,326.7 394,331.5 410.2,331.5 410.3,331.2 410.3,331.2 413.1,322.8 413.1,322.8 424,290.4 	"/>
	<path class="st0" d="M588.2,314.2c-0.5-1.3-1.4-2.4-2.6-3.4c-1.2-1-2.9-2-4.9-2.8s-4.5-1.7-7.5-2.5c-2.4-0.6-4.1-1.2-4.9-1.7
		c-0.8-0.5-1.2-1.1-1.2-1.9c0-0.7,0.3-1.2,0.9-1.6c0.6-0.3,1.3-0.5,2.2-0.5c1.5,0,3.1,0.4,4.8,1.1s3.9,1.9,6.4,3.6l5.6-8.9
		c0,0,0,0,0,0l0,0c-2.8-2.4-5.5-4-8.2-4.8s-5.6-1.2-8.6-1.2c-2.4,0-4.7,0.4-6.8,1.1c-2.1,0.7-3.8,1.7-5.3,3
		c-1.5,1.3-2.6,2.8-3.5,4.6c-0.8,1.8-1.3,3.7-1.3,5.8c0,0.1,0,0.3,0,0.4l0,0c0,0,0,0,0,0.1c0,0.3,0,0.6,0.1,0.9c0,0.1,0,0.3,0.1,0.4
		c0,0.2,0,0.3,0.1,0.5c0.1,0.7,0.3,1.3,0.6,1.8c0.5,1.1,1.4,2.2,2.6,3.1c1.2,0.9,2.8,1.8,4.8,2.6c2,0.8,4.4,1.6,7.3,2.5
		c2.3,0.7,3.9,1.3,4.7,1.8c0.8,0.5,1.2,1.1,1.2,1.9c0,1.3-1.1,1.9-3.1,1.9c-2,0-4.2-0.5-6.5-1.4c-2.4-0.9-4.8-2.3-7.4-4l-5.1,8.9
		c0,0,0,0,0,0l0,0c2.4,2.2,5.3,3.9,8.8,5.1c2.1,0.7,4.2,1.2,6.4,1.5l0,0c1.4,0.2,2.8,0.3,4.2,0.3c2.7,0,5-0.3,7.1-0.9
		s3.9-1.5,5.4-2.7c1.5-1.2,2.6-2.6,3.4-4.3c0.8-1.7,1.2-3.6,1.2-5.7C589,317,588.7,315.5,588.2,314.2z"/>
	<path class="st0" d="M289.3,318.4c0-0.2,0-0.5,0-0.7c0-0.1,0-0.2,0-0.3c-0.1-1.2-0.3-2.2-0.7-3.2c-0.5-1.3-1.4-2.4-2.6-3.4
		c-0.3-0.2-0.6-0.5-1-0.7c-0.1,0-0.1-0.1-0.2-0.1c-0.3-0.2-0.5-0.3-0.8-0.5c-0.2-0.1-0.4-0.2-0.6-0.3c-0.2-0.1-0.3-0.2-0.5-0.3
		c-0.2-0.1-0.5-0.3-0.8-0.4c0,0-0.1,0-0.1-0.1l0,0c-0.3-0.1-0.6-0.3-0.9-0.4c-2-0.9-4.5-1.7-7.5-2.5c-2.4-0.6-4.1-1.2-4.9-1.7
		c-0.8-0.5-1.3-1.1-1.3-1.9c0-0.7,0.3-1.3,0.9-1.6c0.6-0.3,1.3-0.5,2.2-0.5c0.8,0,1.5,0.1,2.3,0.3c0.8,0.2,1.6,0.4,2.5,0.8
		c1.7,0.7,3.9,1.9,6.4,3.6l0,0c0,0,0,0,0,0l0.6-1v0l5-7.9c-0.1-0.1-0.2-0.1-0.3-0.2c-0.3-0.3-0.6-0.5-0.9-0.7c0,0,0,0,0,0l0,0
		c-2.4-1.9-4.7-3.1-7.1-3.8c-2.7-0.8-5.6-1.2-8.6-1.2c-2.4,0-4.7,0.4-6.8,1.1c-2.1,0.7-3.8,1.7-5.3,3c-1.5,1.3-2.6,2.8-3.5,4.6
		c-0.8,1.8-1.3,3.7-1.3,5.8c0,1.6,0.3,2.9,0.8,4.1c0.5,1.1,1.4,2.2,2.6,3.1c1.2,0.9,2.8,1.8,4.8,2.6c2,0.8,4.4,1.6,7.3,2.5
		c2.3,0.7,3.9,1.3,4.7,1.8c0.8,0.5,1.2,1.1,1.2,1.9c0,1.3-1,2-3.1,2c-1,0-2-0.1-3.1-0.3c-1.1-0.2-2.2-0.6-3.4-1.1
		c-2.4-0.9-4.8-2.3-7.4-4l0,0c0,0,0,0,0,0l-5.1,8.9c2.4,2.2,5.3,3.9,8.8,5.1c1.7,0.6,3.5,1,5.2,1.3c1.8,0.3,3.5,0.4,5.3,0.4
		c2.7,0,5-0.3,7.1-0.9c0.4-0.1,0.9-0.3,1.3-0.4c0.1-0.1,0.3-0.1,0.4-0.2c0,0,0.1,0,0.1,0l0,0c1.3-0.6,2.5-1.2,3.5-2.1
		c1.2-1,2.1-2.1,2.9-3.3l0,0c0.2-0.3,0.4-0.6,0.5-1c0.8-1.7,1.2-3.6,1.2-5.7C289.3,318.5,289.3,318.5,289.3,318.4L289.3,318.4z"/>
	<path class="st0" d="M338,301.1c0,0,0-0.1-0.1-0.1c-0.3-0.5-0.5-1-0.8-1.5c-0.1-0.2-0.3-0.4-0.4-0.6c-0.1-0.1-0.1-0.2-0.2-0.3l0,0
		c0,0-0.1-0.1-0.1-0.1c-0.3-0.4-0.5-0.8-0.8-1.1c-0.4-0.4-0.7-0.9-1.1-1.3c0,0,0,0,0,0c0,0,0,0,0,0c-1.9-2-4.3-3.5-7.1-4.7
		s-6-1.8-9.7-1.8c-0.1,0-0.2,0-0.3,0c-0.2,0-0.5,0-0.7,0c-0.3,0-0.6,0-0.9,0.1c-0.4,0-0.7,0-1.1,0.1c-0.5,0-0.9,0.1-1.4,0.2
		c-0.4,0.1-0.7,0.1-1,0.2c-0.5,0.1-1,0.2-1.5,0.3c-0.2,0.1-0.5,0.1-0.7,0.2c-0.7,0.2-1.4,0.5-2.1,0.7c-2.8,1.2-5.1,2.7-7,4.7
		c-1.9,2-3.3,4.3-4.3,7c-1,2.7-1.4,5.5-1.4,8.4c0,0.2,0,0.3,0,0.5l0,0c0.1,2.6,0.5,5.1,1.5,7.4c1,2.5,2.4,4.7,4.3,6.6
		c1.9,1.9,4.3,3.5,7.1,4.6c2.3,0.9,4.8,1.4,7.5,1.6c0.6,0,1.2,0.1,1.9,0.1c0.1,0,0.1,0,0.2,0c0,0,0,0,0,0c0,0,0,0,0,0
		c5.1,0,9.3-1,12.8-3.1c3.5-2.1,6-4.8,7.7-8l-12.6-3.6c0,0,0,0,0,0l0,0c-0.5,1.3-1.4,2.3-2.9,3c-0.7,0.4-1.4,0.6-2.2,0.8
		c-0.3,0.1-0.6,0.1-0.8,0.2c-0.1,0-0.2,0-0.2,0c-0.3,0-0.7,0.1-1.1,0.1c-0.1,0-0.2,0-0.3,0c-1.7,0-3.3-0.5-4.8-1.4
		c-1.5-1-2.3-2.5-2.4-4.7h10.2h18.6h0c0.1-0.6,0.2-1.3,0.3-2.1c0.1-0.8,0.1-1.6,0.1-2.4c0-2.8-0.5-5.5-1.4-8.1
		C338.6,302.3,338.3,301.7,338,301.1z M310.7,306.6c0.3-2,1-3.5,2.2-4.7c1.2-1.1,2.7-1.7,4.6-1.7c1.9,0,3.4,0.6,4.6,1.7
		c0.3,0.3,0.5,0.5,0.7,0.9c0.1,0.1,0.1,0.2,0.2,0.3c0.2,0.2,0.3,0.5,0.4,0.7c0.1,0.1,0.1,0.2,0.2,0.4c0.1,0.3,0.2,0.5,0.3,0.8
		c0,0.1,0.1,0.2,0.1,0.3c0.1,0.4,0.2,0.9,0.3,1.3H310.7z"/>
	<path class="st0" d="M470.6,305.6c0.1-0.1,0.2-0.3,0.3-0.4c0.1-0.2,0.2-0.3,0.4-0.5c0.1-0.1,0.2-0.2,0.2-0.3
		c1.4-1.5,3.1-2.3,5.2-2.3c2.4,0,4.3,1,5.7,3l14.5-4.4c-1.7-3.3-4.2-6-7.5-8c-3.4-2.1-7.5-3.1-12.5-3.1c-3.6,0-6.9,0.6-9.7,1.8
		c-2.3,0.9-4.2,2.2-5.9,3.6l0,0c-0.4,0.3-0.8,0.7-1.2,1.1c-0.5,0.5-0.9,1-1.3,1.5c0,0,0,0,0,0.1c-0.4,0.5-0.8,1-1.1,1.5
		c0,0,0,0.1-0.1,0.1c-0.3,0.5-0.6,1-0.9,1.6l0,0c-0.3,0.6-0.6,1.3-0.9,2c-1,2.6-1.5,5.3-1.5,8.1c0,0.7,0,1.4,0.1,2
		c0,0.1,0,0.3,0.1,0.4c0,0.3,0.1,0.6,0.1,0.9c0,0,0,0,0,0c0,0,0,0,0,0l0,0c0,0.3,0.1,0.5,0.1,0.8c0,0,0,0,0,0
		c0.2,1.3,0.6,2.7,1.1,3.9c1,2.6,2.4,4.8,4.3,6.8c1.9,2,4.3,3.5,7.1,4.7c0.7,0.3,1.4,0.6,2.2,0.8c2.3,0.7,4.8,1,7.5,1
		c5,0,9.2-1,12.5-3.1c3.4-2.1,5.9-4.8,7.5-8l-14.5-4.4c0,0,0,0,0,0l0,0c-1.4,2-3.3,3-5.7,3c-0.8,0-1.5-0.1-2.1-0.3
		c-1.1-0.4-2.1-1-3-2c-1.4-1.5-2.1-3.7-2.1-6.5c0-1.8,0.3-3.3,0.8-4.5C470.3,306.2,470.5,305.9,470.6,305.6z"/>
	<path class="st0" d="M546.6,307c-0.2-1.4-0.6-2.8-1.1-4.2c-1-2.6-2.4-4.8-4.3-6.8c-1.9-2-4.3-3.5-7.1-4.7s-6-1.8-9.7-1.8
		c-3.7,0-6.9,0.6-9.7,1.8c-2.8,1.2-5.1,2.7-7,4.7c-1.9,2-3.3,4.3-4.3,7c-1,2.7-1.4,5.5-1.4,8.4c0,0,0,0,0,0c0,0,0,0,0,0
		c0,2.8,0.5,5.4,1.5,7.9c0.1,0.3,0.2,0.5,0.3,0.7l0,0c1,2.2,2.3,4.2,4,5.9c1.9,1.9,4.3,3.5,7.1,4.6s6,1.7,9.6,1.7
		c5.1,0,9.3-1,12.8-3.1c0.2-0.1,0.5-0.3,0.7-0.5l0,0c0.1-0.1,0.3-0.2,0.4-0.3c0.1-0.1,0.2-0.1,0.3-0.2c0.3-0.2,0.6-0.4,0.9-0.7
		c0.1-0.1,0.1-0.1,0.2-0.2c0.3-0.3,0.7-0.5,1-0.8c0,0,0,0,0,0c1.7-1.6,3.1-3.4,4.2-5.4l-12.6-3.6c-0.5,1.3-1.4,2.3-2.9,3
		c-1.4,0.7-3,1.1-4.6,1.1c-1.7,0-3.3-0.5-4.8-1.4c-1.5-1-2.3-2.5-2.4-4.7H531l0,0h15.6c0.1-0.6,0.2-1.3,0.3-2.1
		c0.1-0.8,0.1-1.6,0.1-2.4C547,309.6,546.9,308.3,546.6,307L546.6,307z M519.6,301.9c1.2-1.1,2.7-1.7,4.6-1.7c0.8,0,1.4,0.1,2.1,0.3
		c0,0,0,0,0.1,0c0.6,0.2,1.2,0.5,1.8,0.9l0,0c0.2,0.2,0.5,0.3,0.7,0.5c1.2,1.1,1.9,2.7,2.2,4.7h-13.6
		C517.7,304.6,518.4,303.1,519.6,301.9z"/>
	<path class="st0" d="M448,285L448,285c-0.2-3.3-5.5-5.9-9.5-5.9c-4.1,0-9.4,2.7-9.5,6.1l0,0l0,0.1c0,0,0,0,0,0c0,0,0,0,0,0l2,39h0
		c0,0,0,0.1,0,0.1c0,3.4,3.3,6.2,7.4,6.2c3.8,0,6.9-2.4,7.4-5.5l0,0c0,0,0,0,0-0.1c0,0,0,0,0,0c0-0.3,0.1-0.5,0.1-0.7
		c0-0.1,0-0.1,0-0.2l0-0.2l0.4-7.8l0-0.8l1-18.8l0.3-6.4l0,0l0.3-4.8c0-0.1,0-0.1,0-0.2c0-0.1,0-0.1,0-0.2L448,285z"/>
	<circle class="st0" cx="438.5" cy="341.1" r="6.6"/>
</g>
</svg>
